<svg xmlns="http://www.w3.org/2000/svg" id="Calque_2" data-name="Calque 2" viewBox="0 0 1888.4 758.08"><g id="Calque_1-2" data-name="Calque 1"><g><g><g><path d="M280.37,507.96c-20.38,14.26-45.84,21.42-76.38,21.42-39.72,0-71.82-13.8-96.25-41.28-24.48-27.48-36.66-66.45-36.66-116.86s12.18-88.45,36.66-115.7c24.42-27.25,56.52-40.88,96.25-40.88,30.54,0,56.12,7.39,76.73,22.11,20.67,14.78,34.53,34.93,41.63,60.39h74.88c-10.68-44.34-32.74-78.92-66.05-103.92-33.37-24.94-75.75-37.41-127.19-37.41-39.72,0-75,8.95-105.83,26.73-30.77,17.84-54.85,42.9-72.17,75.23C8.66,290.18,0,327.94,0,371.24s8.66,81.98,25.98,114.61c17.32,32.56,41.4,57.79,72.17,75.58,30.83,17.84,66.11,26.73,105.83,26.73,50.4,0,92.44-12.82,126.04-38.57,33.6-25.69,56-59.93,67.2-102.71h-74.88c-7.62,26.44-21.65,46.82-41.97,61.08Z"></path><path d="M618.35,174.94c-22.69,13.22-40.13,31.81-52.31,55.77v-68.01h-69.51v418.59h69.51v-227.6c0-84.53,38.91-126.85,116.86-126.85h18.3v-71.77c-32.56,0-60.22,6.64-82.85,19.86Z"></path><path d="M1116.73,162.7v76.38c-13.22-23.9-33.31-43.76-60.33-59.58-26.96-15.76-58.83-23.67-95.5-23.67s-70.9,8.95-101.21,26.73c-30.25,17.84-54.1,42.9-71.42,75.23-17.26,32.39-25.92,69.92-25.92,112.7s8.66,79.96,25.92,113.05c17.32,33.08,40.99,58.83,71.07,77.14,30.02,18.36,63.62,27.48,100.81,27.48s67.84-8.03,95.09-24.02c27.25-16.05,47.75-36.32,61.49-60.74v77.89h70.32V162.7h-70.32ZM1097.68,454.09c-12.76,23.73-29.96,41.8-51.56,54.27-21.65,12.47-45.5,18.71-71.42,18.71s-49.65-6.24-71.07-18.71c-21.36-12.47-38.45-30.54-51.15-54.27-12.76-23.67-19.11-51.56-19.11-83.6s6.35-59.06,19.11-82.5c12.7-23.44,29.79-41.28,51.15-53.46,21.42-12.24,45.09-18.36,71.07-18.36s49.77,6.24,71.42,18.71c21.59,12.53,38.8,30.48,51.56,53.87,12.7,23.44,19.05,50.92,19.05,82.5s-6.35,59.18-19.05,82.85Z"></path><path d="M1311.53,162.7v262.47h69.51V162.7h-69.51ZM1379.89,13.74c-8.89-9.12-19.75-13.74-32.45-13.74s-24.48,4.62-33.6,13.74c-9.18,9.18-13.8,20.38-13.8,33.6s4.62,24.48,13.8,33.66c9.12,9.12,20.32,13.74,33.6,13.74s23.56-4.62,32.45-13.74c8.89-9.18,13.34-20.38,13.34-33.66s-4.45-24.42-13.34-33.6Z"></path><path d="M1888.2,355.94c0-38.16-8.26-72.4-24.83-102.71-16.51-30.31-40.07-54.1-70.61-71.42-30.54-17.32-65.7-25.98-105.43-25.98s-76.79,8.78-108.08,26.39c-31.35,17.55-55.66,42.61-72.98,75.23-17.32,32.56-25.92,70.5-25.92,113.8,0,18.99,1.73,36.95,5.14,53.93h69.57c-1.91-8.6-3.12-17.67-3.7-27.19h334.58c1.5-14.78,2.25-28.75,2.25-42.03ZM1552.12,341.45c3.58-39.72,17.73-70.78,42.44-93.19,24.65-22.4,54.56-33.6,89.72-33.6,24.42,0,46.71,4.97,66.86,14.9,20.09,9.93,36.03,24.42,47.75,43.53,11.66,19.11,17.55,41.86,17.55,68.36h-264.32Z"></path></g><g><path d="M1348.44,579.03c-6.05-2.6-10.83-6.23-14.34-10.89-3.51-4.66-5.44-10.01-5.81-16.06h17.06c.48,4.96,2.81,9.01,6.99,12.16,4.18,3.15,9.65,4.72,16.42,4.72,6.29,0,11.25-1.39,14.88-4.17,3.63-2.79,5.44-6.29,5.44-10.53s-1.93-7.59-5.81-9.71c-3.87-2.11-9.86-4.2-17.96-6.26-7.38-1.93-13.4-3.9-18.05-5.9-4.66-2-8.65-4.96-11.98-8.89-3.33-3.92-4.99-9.1-4.99-15.51,0-5.08,1.51-9.74,4.54-13.97,3.02-4.23,7.32-7.59,12.88-10.07,5.56-2.48,11.91-3.72,19.05-3.72,11.01,0,19.9,2.79,26.67,8.35,6.78,5.56,10.4,13.18,10.89,22.86h-16.51c-.37-5.2-2.45-9.37-6.26-12.52-3.81-3.15-8.93-4.72-15.34-4.72-5.93,0-10.65,1.27-14.15,3.81-3.51,2.54-5.26,5.87-5.26,9.98,0,3.26,1.05,5.96,3.17,8.07,2.11,2.12,4.78,3.81,7.98,5.08,3.2,1.27,7.65,2.7,13.33,4.26,7.14,1.94,12.95,3.85,17.42,5.72,4.47,1.88,8.31,4.69,11.52,8.43,3.2,3.76,4.87,8.65,4.99,14.7,0,5.45-1.51,10.34-4.53,14.7-3.03,4.35-7.29,7.77-12.79,10.25-5.51,2.48-11.82,3.72-18.96,3.72-7.62,0-14.46-1.3-20.5-3.9Z"></path><path d="M1450.22,495.48v58.6c0,4.84,1.03,8.25,3.08,10.25s5.63,2.99,10.71,2.99h12.16v13.97h-14.88c-9.2,0-16.09-2.11-20.69-6.35-4.6-4.23-6.89-11.19-6.89-20.87v-58.6h-12.88v-13.61h12.88v-25.04h16.51v25.04h25.95v13.61h-25.95Z"></path><path d="M1585.94,481.87v99.43h-16.51v-14.7c-3.15,5.08-7.53,9.04-13.15,11.89-5.62,2.84-11.82,4.26-18.6,4.26-7.75,0-14.7-1.6-20.87-4.8-6.17-3.21-11.04-8.01-14.61-14.43-3.57-6.41-5.35-14.21-5.35-23.4v-58.24h16.33v56.07c0,9.8,2.48,17.33,7.44,22.59,4.96,5.27,11.73,7.89,20.32,7.89s15.79-2.72,20.87-8.16c5.08-5.44,7.62-13.36,7.62-23.77v-54.61h16.51Z"></path><path d="M1615.51,504.46c4.11-7.68,9.77-13.64,16.97-17.87,7.19-4.23,15.27-6.35,24.22-6.35,7.74,0,14.94,1.79,21.59,5.36,6.65,3.57,11.73,8.25,15.25,14.06v-52.62h16.69v134.27h-16.69v-18.69c-3.27,5.93-8.11,10.8-14.52,14.61-6.41,3.81-13.91,5.72-22.5,5.72s-16.85-2.18-24.04-6.53c-7.2-4.35-12.86-10.46-16.97-18.32-4.12-7.86-6.17-16.81-6.17-26.86s2.05-19.08,6.17-26.76ZM1689,511.81c-3.02-5.56-7.11-9.83-12.25-12.79-5.14-2.96-10.8-4.44-16.97-4.44s-11.8,1.45-16.88,4.35c-5.08,2.9-9.13,7.14-12.16,12.7-3.02,5.56-4.53,12.09-4.53,19.59s1.51,14.24,4.53,19.87,7.08,9.92,12.16,12.88c5.08,2.97,10.71,4.44,16.88,4.44s11.82-1.48,16.97-4.44c5.14-2.97,9.22-7.26,12.25-12.88s4.54-12.18,4.54-19.69-1.52-14.03-4.54-19.59Z"></path><path d="M1740.35,462.46c-2.18-2.18-3.26-4.84-3.26-7.98s1.09-5.81,3.26-7.98c2.18-2.18,4.84-3.26,7.98-3.26s5.59,1.09,7.71,3.26c2.11,2.18,3.17,4.84,3.17,7.98s-1.06,5.81-3.17,7.98c-2.12,2.18-4.69,3.26-7.71,3.26s-5.8-1.09-7.98-3.26ZM1756.31,481.87v99.43h-16.51v-99.43h16.51Z"></path><path d="M1804.12,576.58c-7.56-4.23-13.49-10.25-17.78-18.05-4.3-7.8-6.44-16.84-6.44-27.13s2.2-19.14,6.62-26.94c4.41-7.8,10.44-13.79,18.05-17.96,7.62-4.18,16.15-6.26,25.59-6.26s17.96,2.09,25.58,6.26c7.62,4.17,13.64,10.13,18.05,17.87,4.41,7.75,6.62,16.76,6.62,27.04s-2.27,19.33-6.81,27.13c-4.53,7.8-10.68,13.83-18.41,18.05-7.74,4.24-16.33,6.35-25.77,6.35s-17.75-2.11-25.31-6.35ZM1846.13,564.25c5.2-2.78,9.4-6.95,12.61-12.52s4.81-12.34,4.81-20.33-1.57-14.76-4.72-20.32c-3.15-5.56-7.26-9.71-12.34-12.43-5.08-2.72-10.58-4.08-16.51-4.08s-11.59,1.36-16.6,4.08c-5.02,2.72-9.04,6.87-12.07,12.43-3.02,5.56-4.53,12.34-4.53,20.32s1.48,14.94,4.44,20.51c2.96,5.56,6.92,9.7,11.89,12.43,4.96,2.72,10.4,4.08,16.33,4.08s11.49-1.39,16.69-4.17Z"></path></g></g><g><path d="M6.98,718.88c2.05-3.83,4.88-6.81,8.47-8.92,3.59-2.12,7.6-3.17,12.01-3.17s8.13.94,11.33,2.81c3.2,1.88,5.59,4.23,7.16,7.07v-9.06h8.34v49.66h-8.34v-9.24c-1.63,2.9-4.06,5.3-7.29,7.2-3.23,1.9-6.99,2.85-11.28,2.85s-8.4-1.08-11.96-3.26c-3.57-2.18-6.37-5.23-8.43-9.15-2.05-3.93-3.08-8.4-3.08-13.41s1.03-9.53,3.08-13.37ZM43.68,722.56c-1.51-2.78-3.55-4.91-6.12-6.39-2.57-1.48-5.39-2.22-8.47-2.22s-5.89.73-8.43,2.18c-2.54,1.45-4.56,3.56-6.07,6.34-1.51,2.78-2.27,6.04-2.27,9.78s.76,7.11,2.27,9.92c1.51,2.81,3.53,4.96,6.07,6.43,2.54,1.48,5.35,2.22,8.43,2.22s5.9-.74,8.47-2.22c2.57-1.48,4.61-3.62,6.12-6.43,1.51-2.81,2.27-6.08,2.27-9.83s-.76-7.01-2.27-9.78Z"></path><path d="M204.22,709.05c2.69-1.57,5.97-2.36,9.83-2.36v8.52h-2.17c-9.25,0-13.87,5.02-13.87,15.04v27h-8.25v-49.66h8.25v8.06c1.45-2.84,3.52-5.04,6.21-6.62Z"></path><path d="M345.09,718.88c2.05-3.83,4.91-6.81,8.57-8.92,3.65-2.12,7.84-3.17,12.55-3.17,6.1,0,11.13,1.48,15.09,4.44,3.95,2.96,6.57,7.07,7.84,12.32h-8.88c-.85-3.02-2.49-5.4-4.94-7.16-2.44-1.75-5.48-2.63-9.11-2.63-4.71,0-8.52,1.62-11.42,4.85-2.9,3.24-4.35,7.81-4.35,13.73s1.45,10.6,4.35,13.87c2.9,3.26,6.71,4.9,11.42,4.9,3.63,0,6.65-.85,9.06-2.54,2.41-1.69,4.08-4.11,4.98-7.25h8.88c-1.33,5.08-3.99,9.14-7.97,12.19-3.99,3.05-8.97,4.57-14.95,4.57-4.71,0-8.9-1.06-12.55-3.17-3.66-2.11-6.51-5.11-8.57-8.97-2.05-3.87-3.08-8.4-3.08-13.6s1.03-9.62,3.08-13.46Z"></path><path d="M556.42,709.1c3.02,1.6,5.39,4,7.11,7.2,1.72,3.21,2.58,7.1,2.58,11.69v29.27h-8.16v-28.09c0-4.96-1.24-8.74-3.71-11.37-2.48-2.63-5.86-3.94-10.15-3.94s-7.81,1.36-10.38,4.08c-2.57,2.72-3.85,6.68-3.85,11.88v27.46h-8.25v-67.06h8.25v24.47c1.63-2.54,3.88-4.5,6.75-5.89,2.87-1.39,6.09-2.09,9.65-2.09,3.74,0,7.13.8,10.15,2.4Z"></path><path d="M701.42,697.9c-1.09-1.08-1.63-2.41-1.63-3.98s.54-2.9,1.63-3.99c1.09-1.09,2.42-1.63,3.99-1.63s2.79.54,3.85,1.63c1.06,1.08,1.58,2.42,1.58,3.99s-.53,2.9-1.58,3.98c-1.06,1.09-2.34,1.63-3.85,1.63s-2.9-.54-3.99-1.63ZM709.4,707.61v49.66h-8.25v-49.66h8.25Z"></path><path d="M855.02,714.4v29.27c0,2.42.51,4.13,1.54,5.12,1.03,1,2.81,1.49,5.35,1.49h6.07v6.98h-7.43c-4.59,0-8.03-1.06-10.33-3.17-2.3-2.12-3.45-5.59-3.45-10.43v-29.27h-6.43v-6.79h6.43v-12.51h8.25v12.51h12.96v6.79h-12.96Z"></path><path d="M1044.51,735.52h-39.69c.3,4.9,1.98,8.72,5.03,11.46,3.05,2.75,6.75,4.13,11.1,4.13,3.56,0,6.54-.83,8.92-2.49,2.39-1.66,4.07-3.88,5.03-6.66h8.88c-1.33,4.77-3.99,8.66-7.97,11.64-3.99,2.99-8.94,4.49-14.86,4.49-4.71,0-8.93-1.06-12.64-3.17s-6.63-5.12-8.74-9.02c-2.12-3.9-3.17-8.41-3.17-13.55s1.02-9.64,3.08-13.5c2.05-3.87,4.93-6.84,8.65-8.93,3.72-2.08,7.99-3.13,12.83-3.13s8.88,1.03,12.51,3.08c3.62,2.06,6.42,4.88,8.38,8.47s2.95,7.66,2.95,12.19c0,1.57-.09,3.23-.28,4.98ZM1034.19,720.7c-1.39-2.27-3.28-3.99-5.66-5.17-2.39-1.18-5.03-1.76-7.93-1.76-4.17,0-7.72,1.33-10.65,3.99-2.93,2.65-4.61,6.34-5.03,11.05h31.35c0-3.14-.69-5.84-2.08-8.11Z"></path><path d="M1177.19,718.88c2.05-3.83,4.91-6.81,8.56-8.92,3.66-2.12,7.84-3.17,12.55-3.17,6.1,0,11.13,1.48,15.09,4.44,3.95,2.96,6.57,7.07,7.84,12.32h-8.88c-.85-3.02-2.49-5.4-4.94-7.16-2.45-1.75-5.49-2.63-9.11-2.63-4.71,0-8.52,1.62-11.42,4.85-2.9,3.24-4.35,7.81-4.35,13.73s1.45,10.6,4.35,13.87c2.9,3.26,6.7,4.9,11.42,4.9,3.62,0,6.64-.85,9.06-2.54s4.08-4.11,4.99-7.25h8.88c-1.33,5.08-3.99,9.14-7.98,12.19-3.98,3.05-8.97,4.57-14.95,4.57-4.71,0-8.89-1.06-12.55-3.17s-6.51-5.11-8.56-8.97c-2.06-3.87-3.08-8.4-3.08-13.6s1.02-9.62,3.08-13.46Z"></path><path d="M1363.78,714.4v29.27c0,2.42.51,4.13,1.54,5.12,1.02,1,2.81,1.49,5.34,1.49h6.07v6.98h-7.43c-4.6,0-8.04-1.06-10.33-3.17-2.3-2.12-3.45-5.59-3.45-10.43v-29.27h-6.43v-6.79h6.43v-12.51h8.25v12.51h12.96v6.79h-12.96Z"></path><path d="M1552.28,707.61v49.66h-8.25v-7.34c-1.57,2.54-3.76,4.52-6.57,5.93-2.8,1.42-5.9,2.13-9.29,2.13-3.87,0-7.34-.8-10.42-2.4s-5.51-4-7.3-7.21c-1.78-3.2-2.67-7.1-2.67-11.69v-29.09h8.15v28c0,4.9,1.24,8.66,3.72,11.28s5.86,3.94,10.15,3.94,7.88-1.36,10.42-4.08c2.54-2.72,3.81-6.67,3.81-11.87v-27.27h8.25Z"></path><path d="M1702.21,709.05c2.69-1.57,5.96-2.36,9.83-2.36v8.52h-2.17c-9.24,0-13.86,5.02-13.86,15.04v27h-8.25v-49.66h8.25v8.06c1.45-2.84,3.52-5.04,6.21-6.62Z"></path><path d="M1888.12,735.52h-39.69c.3,4.9,1.98,8.72,5.03,11.46,3.05,2.75,6.75,4.13,11.1,4.13,3.56,0,6.54-.83,8.92-2.49,2.39-1.66,4.07-3.88,5.03-6.66h8.88c-1.33,4.77-3.99,8.66-7.97,11.64-3.99,2.99-8.94,4.49-14.86,4.49-4.71,0-8.93-1.06-12.64-3.17s-6.63-5.12-8.74-9.02c-2.12-3.9-3.17-8.41-3.17-13.55s1.02-9.64,3.08-13.5c2.05-3.87,4.93-6.84,8.65-8.93,3.72-2.08,7.99-3.13,12.83-3.13s8.88,1.03,12.51,3.08c3.62,2.06,6.42,4.88,8.38,8.47s2.95,7.66,2.95,12.19c0,1.57-.09,3.23-.28,4.98ZM1877.8,720.7c-1.39-2.27-3.28-3.99-5.66-5.17-2.39-1.18-5.03-1.76-7.93-1.76-4.17,0-7.72,1.33-10.65,3.99-2.93,2.65-4.61,6.34-5.03,11.05h31.35c0-3.14-.69-5.84-2.08-8.11Z"></path></g></g></g></svg>